<svg width="23" height="35" viewBox="0 0 23 35" fill="none" xmlns="http://www.w3.org/2000/svg">
<path d="M22.9204 1.33687L20.3483 9.05575C20.3483 9.05575 18.04 7.80225 15.27 7.80225C11.1151 7.80225 10.9171 10.4411 10.9171 11.035C10.9171 14.5975 20.1505 15.917 20.1505 24.2296C20.1505 30.761 15.9955 34.9834 10.4555 34.9834C3.72844 34.9834 0.364868 30.827 0.364868 30.827L2.14557 24.8894C2.14557 24.8894 5.70693 27.9241 8.67478 27.9241C10.6534 27.9241 11.4448 26.4067 11.4448 25.2853C11.4448 20.6671 3.92624 20.4691 3.92624 12.8162C3.92624 6.41675 8.47699 0.28125 17.7762 0.28125C21.1397 0.34725 22.9204 1.33687 22.9204 1.33687Z" fill="white"/>
</svg>
