<svg width="177" height="57" viewBox="0 0 177 57" fill="none" xmlns="http://www.w3.org/2000/svg">
<path d="M15.9453 25.9276C13.835 24.806 12.7137 23.8165 12.7137 22.497C12.7137 20.7816 14.2305 19.7261 16.6049 19.7261C19.3748 19.7261 21.8151 20.8476 21.8151 20.8476L23.7276 14.976C23.7276 14.976 21.947 13.5905 16.7368 13.5905C9.48213 13.5905 4.40379 17.7469 4.40379 23.6185C4.40379 26.9173 6.778 29.4901 9.87773 31.2715C12.4499 32.6569 13.3072 33.7125 13.3072 35.2299C13.3072 36.8133 12.0541 38.0668 9.67993 38.0668C6.18448 38.0668 2.88683 36.2855 2.88683 36.2855L0.842407 42.1571C0.842407 42.1571 3.8762 44.2023 9.02035 44.2023C16.473 44.2023 21.881 40.5078 21.881 33.9104C21.881 30.3479 19.177 27.8409 15.9453 25.9276ZM45.6897 13.5246C41.9963 13.5246 39.0945 15.3059 36.9181 17.9448L36.8521 17.8789L40.0838 1.1875H31.7738L23.6617 43.7405H31.9716L34.7417 29.2262C35.7969 23.7505 38.6988 20.3199 41.3369 20.3199C43.2494 20.3199 43.9749 21.5734 43.9749 23.4206C43.9749 24.5421 43.909 25.9936 43.6452 27.1151L40.5454 43.7405H48.8554L52.087 26.5874C52.4167 24.806 52.6806 22.6289 52.6806 21.1115C52.4827 16.2955 50.0425 13.5246 45.6897 13.5246ZM71.3449 13.5246C61.3201 13.5246 54.7252 22.563 54.7252 32.6569C54.7252 39.0564 58.6828 44.2683 66.1352 44.2683C75.9614 44.2683 82.5572 35.4938 82.5572 25.1359C82.6222 19.1324 79.127 13.5246 71.3449 13.5246ZM67.2565 37.8689C64.4194 37.8689 63.2331 35.4938 63.2331 32.393C63.2331 27.6429 65.6731 19.858 70.2235 19.858C73.1256 19.858 74.1808 22.431 74.1808 24.872C74.1146 30.018 71.6084 37.8689 67.2565 37.8689ZM103.859 13.5246C98.2538 13.5246 95.0883 18.4726 95.0883 18.4726H95.0221L95.4829 13.9864H88.0966C87.7669 17.0211 87.0414 21.6394 86.3821 25.004L80.6442 55.4838H88.9545L91.2621 43.1468H91.4607C91.4607 43.1468 93.1752 44.2023 96.3407 44.2023C106.102 44.2023 112.499 34.1743 112.499 24.0804C112.499 18.5386 109.927 13.5246 103.859 13.5246ZM95.8787 38.0008C93.7022 38.0008 92.4497 36.7472 92.4497 36.7472L93.8345 29.0284C94.8235 23.8165 97.5283 20.3859 100.43 20.3859C103.001 20.3859 103.727 22.7609 103.727 24.938C103.793 30.3479 100.561 38.0008 95.8787 38.0008ZM124.37 1.58338C121.732 1.58338 119.622 3.6945 119.622 6.39938C119.622 8.8405 121.204 10.5558 123.579 10.5558H123.645C126.283 10.5558 128.459 8.7745 128.526 5.73975C128.459 3.29863 126.811 1.58338 124.37 1.58338ZM112.697 43.6745H121.007L126.612 14.1184H118.237L112.697 43.6745ZM147.85 14.1184H142.046L142.309 12.7329C142.771 9.896 144.486 7.389 147.255 7.389C148.772 7.389 149.894 7.85088 149.894 7.85088L151.477 1.3195C151.477 1.3195 150.091 0.59375 146.926 0.59375C144.024 0.59375 141.057 1.45137 138.814 3.36462C135.978 5.73962 134.659 9.23625 133.999 12.7989L133.735 14.1843H129.844L128.592 20.4518H132.483L128.063 43.7405H136.374L140.792 20.4518H146.53L147.85 14.1184ZM167.833 14.1184C167.833 14.1184 162.622 27.2471 160.314 34.4383H160.248C160.116 32.1291 158.204 14.1184 158.204 14.1184H149.432L154.444 41.1675C154.51 41.7613 154.51 42.1571 154.247 42.553C153.258 44.4661 151.608 46.2475 149.695 47.5669C148.113 48.6885 146.399 49.4801 144.948 49.942L147.255 57.0011C148.971 56.6713 152.466 55.2199 155.368 52.449C159.127 48.8864 162.688 43.4106 166.25 35.9556L176.407 14.1184H167.833Z" fill="black"/>
</svg>
